<svg id="Group_101103" data-name="Group 101103" xmlns="http://www.w3.org/2000/svg" width="50.962" height="53.793" viewBox="0 0 50.962 53.793">
  <g id="Group_101102" data-name="Group 101102" transform="translate(0 0)">
    <path id="Path_9594" data-name="Path 9594" d="M32.46,69.062a14.156,14.156,0,1,0-13.958,0C7.837,71.862,0,80.879,0,91.567v3.477a1.416,1.416,0,0,0,2.831,0V91.567c0-11.35,10.161-20.589,22.65-20.589s22.65,9.238,22.65,20.589v3.477a1.416,1.416,0,0,0,2.831,0V91.567C50.962,80.879,43.125,71.859,32.46,69.062Zm-18.3-12.239A11.325,11.325,0,1,1,25.481,68.147,11.336,11.336,0,0,1,14.156,56.822Z" transform="translate(0 -42.666)" fill="#FFF"/>
  </g>
</svg>
