<svg xmlns="http://www.w3.org/2000/svg" width="62.65" height="62.65" viewBox="0 0 62.65 62.65">
  <path id="Path_9860" data-name="Path 9860" d="M59.734,1h-24.8A3.846,3.846,0,0,0,31.02,4.916V8.7a16.063,16.063,0,0,0-5.743-1.044c-8.353,0-13.444,5.09-13.444,13.313,0,5.873,2.61,12.008,6.4,15.532v1.958c0,2.61-2.48,5.221-6.134,6.4C5.307,47.2,1,52.164,1,57.516v4.829A1.233,1.233,0,0,0,2.305,63.65H48.249a1.233,1.233,0,0,0,1.305-1.305V57.516c0-5.351-4.307-10.311-10.964-12.53-3.785-1.305-6.134-3.785-6.134-6.4V36.632a18.977,18.977,0,0,0,2.48-3h8.353v4.177a.281.281,0,0,1-.261.261h-4.7a1.305,1.305,0,0,0,0,2.61h4.7A2.9,2.9,0,0,0,45.9,37.807V33.63H59.734a3.846,3.846,0,0,0,3.916-3.916V4.916A3.846,3.846,0,0,0,59.734,1ZM37.676,47.465c5.612,1.827,9.267,5.873,9.267,10.05V61.04H3.61V57.516c0-4.307,3.655-8.223,9.267-10.05,4.96-1.7,7.962-5.09,7.962-8.875a8.97,8.97,0,0,0,8.875,0C29.715,42.375,32.847,45.9,37.676,47.465Zm-7.44-12.4c-3.263,2.741-6.657,2.741-9.92,0-3.524-3-5.873-8.745-5.873-14.1,0-6.657,4.046-10.7,10.833-10.7a12.856,12.856,0,0,1,5.743,1.305V29.715a4.249,4.249,0,0,0,1.305,3A12.2,12.2,0,0,1,30.237,35.066Zm30.8-5.351a1.233,1.233,0,0,1-1.305,1.305h-24.8a1.233,1.233,0,0,1-1.305-1.305V4.916A1.233,1.233,0,0,1,34.935,3.61h24.8A1.233,1.233,0,0,1,61.04,4.916Z" transform="translate(-1 -1)" fill="#FFF"/>
</svg>
