<?xml version="1.0" encoding="utf-8"?>
<!-- Generator: Adobe Illustrator 27.7.0, SVG Export Plug-In . SVG Version: 6.00 Build 0)  -->
<svg version="1.1" id="Layer_1" xmlns="http://www.w3.org/2000/svg" xmlns:xlink="http://www.w3.org/1999/xlink" width="69.962" height="53.793" viewBox="0 0 69.962 53.793" >
<style type="text/css">
	.st0{fill:#FFF;}
</style>
<path id="Path_9859" class="st0" d="M51.5,20.8c-1.1-0.4-1.8-1-1.8-1.7v-0.5c1.5-1.7,2.3-3.8,2.3-6.1c0-3.4-2.2-5.6-5.7-5.6
	c-3.4,0-5.7,2.2-5.7,5.6c0,2.2,0.8,4.4,2.3,6.1V19c0,0.6-0.7,1.3-1.8,1.7c-2.8,1-4.5,3-4.5,5.3v1.8c0,0.6,0.4,1.2,1.1,1.2
	c0,0,0.1,0,0.1,0h16.9c0.6,0,1.2-0.4,1.2-1.1c0,0,0-0.1,0-0.1V26C56,23.7,54.3,21.6,51.5,20.8L51.5,20.8z M46.4,9.4
	c1.2,0,3.3,0.4,3.3,3.2c0,2.6-1.7,5.2-3.3,5.2c-1.6,0-3.3-2.7-3.3-5.2c-0.1-1.6,1.1-3.1,2.8-3.2C46.1,9.3,46.3,9.4,46.4,9.4z
	 M53.6,26.6H39.1V26c0-1.2,1.1-2.4,2.9-3c1.5-0.4,2.7-1.5,3.3-2.9c0.7,0.2,1.5,0.2,2.2,0c0.5,1.5,1.8,2.6,3.3,2.9
	c1.7,0.6,2.9,1.8,2.9,3v0.6L53.6,26.6z"/>
<path id="Path_9860" class="st0" d="M58,2.8H34.9c-2,0-3.6,1.5-3.6,3.5c0,0,0,0.1,0,0.1V10c-1.7-0.6-3.5-1-5.3-1
	c-7.8,0-12.5,4.7-12.5,12.4c0,5.5,2.4,11.2,6,14.5v1.8c0,2.4-2.3,4.9-5.7,6C7.3,45.8,3.3,50.5,3.3,55.4v4.5c0,0.6,0.4,1.2,1.1,1.2
	c0,0,0.1,0,0.1,0h42.8c0.6,0,1.2-0.4,1.2-1.1c0,0,0-0.1,0-0.1v-4.5c0-5-4-9.6-10.2-11.7c-3.5-1.2-5.7-3.5-5.7-6V36
	c0.9-0.8,1.6-1.8,2.3-2.8h7.8v3.9c0,0.1-0.1,0.2-0.2,0.2H38c-0.7,0-1.2,0.5-1.2,1.2c0,0.7,0.5,1.2,1.2,1.2h4.4
	c1.5,0,2.7-1.2,2.7-2.7v-3.9H58c2,0,3.6-1.5,3.6-3.5c0,0,0-0.1,0-0.1V6.5c0-2-1.5-3.6-3.5-3.6C58.1,2.8,58,2.8,58,2.8z M37.4,46.1
	c5.2,1.7,8.6,5.5,8.6,9.4v3.3H5.7v-3.3c0-4,3.4-7.7,8.6-9.4c4.6-1.6,7.4-4.7,7.4-8.3c2.6,1.5,5.7,1.5,8.3,0
	C30,41.3,32.9,44.6,37.4,46.1z M30.5,34.5c-3,2.6-6.2,2.6-9.2,0c-3.3-2.8-5.5-8.1-5.5-13.1c0-6.2,3.8-10,10.1-10
	c1.9,0,3.7,0.4,5.3,1.2v16.9c0,1.1,0.5,2.1,1.2,2.8C31.9,33.2,31.2,33.9,30.5,34.5L30.5,34.5z M59.2,29.5c0,0.6-0.4,1.2-1.1,1.2
	c0,0-0.1,0-0.1,0H34.9c-0.6,0-1.2-0.4-1.2-1.1c0,0,0-0.1,0-0.1V6.5c0-0.6,0.4-1.2,1.1-1.2c0,0,0.1,0,0.1,0H58c0.6,0,1.2,0.4,1.2,1.1
	c0,0,0,0.1,0,0.1L59.2,29.5z"/>
<path id="Path_9861" class="st0" d="M7.9,14.5c0.6,0,1.2-0.4,1.2-1.1c0,0,0-0.1,0-0.1V8.9c0-0.1,0.1-0.2,0.2-0.2h4.4
	c0.6,0,1.2-0.4,1.2-1.1c0,0,0-0.1,0-0.1c0-0.6-0.4-1.2-1.1-1.2c0,0-0.1,0-0.1,0H9.5C8,6.2,6.8,7.4,6.8,8.9v4.4
	C6.7,13.9,7.2,14.4,7.9,14.5C7.8,14.5,7.9,14.5,7.9,14.5z"/>
<path id="Path_9862" class="st0" d="M9.5,39.9h4.4c0.7,0,1.2-0.5,1.2-1.2c0-0.7-0.5-1.2-1.2-1.2l0,0H9.5c-0.1,0-0.2-0.1-0.2-0.2
	v-4.3c0-0.6-0.4-1.2-1.1-1.2c0,0-0.1,0-0.1,0c-0.6,0-1.2,0.4-1.2,1.1c0,0,0,0.1,0,0.1v4.3c-0.1,1.4,1,2.6,2.4,2.7
	C9.3,39.9,9.4,39.9,9.5,39.9z"/>
</svg>
